G75*
%MOIN*%
%OFA0B0*%
%FSLAX25Y25*%
%IPPOS*%
%LPD*%
%AMOC8*
5,1,8,0,0,1.08239X$1,22.5*
%
%ADD10R,0.06706X0.05918*%
%ADD11OC8,0.07100*%
%ADD12C,0.07100*%
%ADD13C,0.07900*%
%ADD14C,0.06400*%
%ADD15C,0.06743*%
%ADD16C,0.06743*%
%ADD17C,0.07200*%
%ADD18C,0.16350*%
%ADD19C,0.09461*%
%ADD20C,0.07800*%
%ADD21C,0.03578*%
%ADD22C,0.05800*%
%ADD23C,0.06400*%
%ADD24C,0.06115*%
D10*
X0020350Y0047924D03*
X0020350Y0055404D03*
X0020350Y0071674D03*
X0020350Y0079154D03*
X0070350Y0196674D03*
X0070350Y0204154D03*
X0091600Y0204154D03*
X0091600Y0196674D03*
X0136600Y0196674D03*
X0136600Y0204154D03*
X0181600Y0204154D03*
X0181600Y0196674D03*
X0226600Y0196674D03*
X0226600Y0204154D03*
X0265350Y0205404D03*
X0265350Y0197924D03*
D11*
X0287850Y0187164D03*
X0300850Y0097914D03*
D12*
X0314850Y0097914D03*
X0287850Y0201164D03*
D13*
X0338050Y0105414D02*
X0345150Y0105414D01*
X0335150Y0065414D02*
X0328050Y0065414D01*
D14*
X0341600Y0115114D02*
X0341600Y0120714D01*
X0341600Y0145114D02*
X0341600Y0150714D01*
X0339400Y0195414D02*
X0333800Y0195414D01*
X0309400Y0195414D02*
X0303800Y0195414D01*
X0301600Y0236364D02*
X0301600Y0241964D01*
X0291600Y0241964D02*
X0291600Y0236364D01*
X0281600Y0236364D02*
X0281600Y0241964D01*
X0271600Y0241964D02*
X0271600Y0236364D01*
X0261600Y0236364D02*
X0261600Y0241964D01*
X0251600Y0241964D02*
X0251600Y0236364D01*
X0241600Y0236364D02*
X0241600Y0241964D01*
X0231600Y0241964D02*
X0231600Y0236364D01*
X0221600Y0236364D02*
X0221600Y0241964D01*
X0211600Y0241964D02*
X0211600Y0236364D01*
X0201600Y0236364D02*
X0201600Y0241964D01*
X0191600Y0241964D02*
X0191600Y0236364D01*
X0181600Y0236364D02*
X0181600Y0241964D01*
X0171600Y0241964D02*
X0171600Y0236364D01*
X0161600Y0236364D02*
X0161600Y0241964D01*
X0151600Y0241964D02*
X0151600Y0236364D01*
X0141600Y0236364D02*
X0141600Y0241964D01*
X0131600Y0241964D02*
X0131600Y0236364D01*
X0121600Y0236364D02*
X0121600Y0241964D01*
X0111600Y0241964D02*
X0111600Y0236364D01*
X0101600Y0236364D02*
X0101600Y0241964D01*
X0091600Y0241964D02*
X0091600Y0236364D01*
X0081600Y0236364D02*
X0081600Y0241964D01*
X0071600Y0241964D02*
X0071600Y0236364D01*
X0061600Y0236364D02*
X0061600Y0241964D01*
X0051600Y0241964D02*
X0051600Y0236364D01*
X0044400Y0259164D02*
X0038800Y0259164D01*
X0038800Y0269164D02*
X0044400Y0269164D01*
X0044400Y0279164D02*
X0038800Y0279164D01*
X0038800Y0289164D02*
X0044400Y0289164D01*
X0044400Y0299164D02*
X0038800Y0299164D01*
X0038800Y0309164D02*
X0044400Y0309164D01*
X0044400Y0319164D02*
X0038800Y0319164D01*
X0038800Y0329164D02*
X0044400Y0329164D01*
X0044400Y0339164D02*
X0038800Y0339164D01*
X0038800Y0349164D02*
X0044400Y0349164D01*
X0311600Y0241964D02*
X0311600Y0236364D01*
X0321600Y0236364D02*
X0321600Y0241964D01*
X0331600Y0241964D02*
X0331600Y0236364D01*
X0334400Y0259164D02*
X0328800Y0259164D01*
X0328800Y0269164D02*
X0334400Y0269164D01*
X0334400Y0279164D02*
X0328800Y0279164D01*
X0328800Y0289164D02*
X0334400Y0289164D01*
X0334400Y0299164D02*
X0328800Y0299164D01*
X0328800Y0309164D02*
X0334400Y0309164D01*
X0334400Y0319164D02*
X0328800Y0319164D01*
X0328800Y0329164D02*
X0334400Y0329164D01*
X0334400Y0339164D02*
X0328800Y0339164D01*
D15*
X0334986Y0186456D02*
X0334986Y0180513D01*
X0328293Y0171102D02*
X0328293Y0165159D01*
X0314907Y0165159D02*
X0314907Y0171102D01*
X0308214Y0180513D02*
X0308214Y0186456D01*
X0321600Y0186456D02*
X0321600Y0180513D01*
D16*
X0311757Y0216664D03*
X0331443Y0216664D03*
D17*
X0286600Y0163614D02*
X0286600Y0157214D01*
X0276600Y0157214D02*
X0276600Y0163614D01*
X0266600Y0163614D02*
X0266600Y0157214D01*
X0241600Y0157214D02*
X0241600Y0163614D01*
X0231600Y0163614D02*
X0231600Y0157214D01*
X0221600Y0157214D02*
X0221600Y0163614D01*
X0196600Y0163614D02*
X0196600Y0157214D01*
X0186600Y0157214D02*
X0186600Y0163614D01*
X0176600Y0163614D02*
X0176600Y0157214D01*
X0176600Y0128614D02*
X0176600Y0122214D01*
X0186600Y0122214D02*
X0186600Y0128614D01*
X0196600Y0128614D02*
X0196600Y0122214D01*
X0221600Y0122214D02*
X0221600Y0128614D01*
X0231600Y0128614D02*
X0231600Y0122214D01*
X0241600Y0122214D02*
X0241600Y0128614D01*
X0266600Y0128614D02*
X0266600Y0122214D01*
X0276600Y0122214D02*
X0276600Y0128614D01*
X0286600Y0128614D02*
X0286600Y0122214D01*
X0151600Y0122214D02*
X0151600Y0128614D01*
X0141600Y0128614D02*
X0141600Y0122214D01*
X0131600Y0122214D02*
X0131600Y0128614D01*
X0131600Y0157214D02*
X0131600Y0163614D01*
X0141600Y0163614D02*
X0141600Y0157214D01*
X0151600Y0157214D02*
X0151600Y0163614D01*
X0106600Y0163614D02*
X0106600Y0157214D01*
X0096600Y0157214D02*
X0096600Y0163614D01*
X0086600Y0163614D02*
X0086600Y0157214D01*
X0061600Y0157214D02*
X0061600Y0163614D01*
X0051600Y0163614D02*
X0051600Y0157214D01*
X0041600Y0157214D02*
X0041600Y0163614D01*
X0041600Y0128614D02*
X0041600Y0122214D01*
X0051600Y0122214D02*
X0051600Y0128614D01*
X0061600Y0128614D02*
X0061600Y0122214D01*
X0086600Y0122214D02*
X0086600Y0128614D01*
X0096600Y0128614D02*
X0096600Y0122214D01*
X0106600Y0122214D02*
X0106600Y0128614D01*
D18*
X0086600Y0075414D03*
X0286600Y0075414D03*
D19*
X0270350Y0090414D03*
X0102850Y0090414D03*
D20*
X0126600Y0085414D03*
X0136600Y0085414D03*
X0136600Y0075414D03*
X0126600Y0075414D03*
X0126600Y0065414D03*
X0136600Y0065414D03*
X0136600Y0055414D03*
X0126600Y0055414D03*
X0146600Y0055414D03*
X0146600Y0065414D03*
X0146600Y0075414D03*
X0146600Y0085414D03*
X0156600Y0085414D03*
X0156600Y0075414D03*
X0156600Y0065414D03*
X0156600Y0055414D03*
X0166600Y0055414D03*
X0166600Y0065414D03*
X0166600Y0075414D03*
X0166600Y0085414D03*
X0176600Y0085414D03*
X0186600Y0085414D03*
X0186600Y0075414D03*
X0176600Y0075414D03*
X0176600Y0065414D03*
X0186600Y0065414D03*
X0186600Y0055414D03*
X0176600Y0055414D03*
X0196600Y0055414D03*
X0196600Y0065414D03*
X0196600Y0075414D03*
X0196600Y0085414D03*
X0206600Y0085414D03*
X0206600Y0075414D03*
X0206600Y0065414D03*
X0206600Y0055414D03*
X0216600Y0055414D03*
X0216600Y0065414D03*
X0216600Y0075414D03*
X0216600Y0085414D03*
X0231600Y0085414D03*
X0231600Y0075414D03*
X0231600Y0065414D03*
X0231600Y0055414D03*
X0246600Y0055414D03*
X0246600Y0065414D03*
X0246600Y0075414D03*
X0246600Y0085414D03*
D21*
X0291600Y0085414D03*
X0305350Y0047914D03*
X0090350Y0092914D03*
X0082850Y0092914D03*
X0081600Y0107914D03*
X0087850Y0107914D03*
X0075350Y0107914D03*
X0032840Y0079174D03*
D22*
X0061600Y0339164D03*
X0071600Y0339164D03*
X0081600Y0339164D03*
X0091600Y0339164D03*
X0101600Y0339164D03*
X0111600Y0339164D03*
X0121600Y0339164D03*
X0131600Y0339164D03*
X0141600Y0339164D03*
X0151600Y0339164D03*
X0161600Y0339164D03*
X0171600Y0339164D03*
X0181600Y0339164D03*
X0191600Y0339164D03*
X0201600Y0339164D03*
X0211600Y0339164D03*
X0221600Y0339164D03*
X0231600Y0339164D03*
X0241600Y0339164D03*
X0251600Y0339164D03*
X0261600Y0339164D03*
X0271600Y0339164D03*
X0281600Y0339164D03*
X0291600Y0339164D03*
X0301600Y0339164D03*
X0311600Y0339164D03*
X0311600Y0419164D03*
X0301600Y0419164D03*
X0291600Y0419164D03*
X0281600Y0419164D03*
X0271600Y0419164D03*
X0261600Y0419164D03*
X0251600Y0419164D03*
X0241600Y0419164D03*
X0231600Y0419164D03*
X0221600Y0419164D03*
X0211600Y0419164D03*
X0201600Y0419164D03*
X0191600Y0419164D03*
X0181600Y0419164D03*
X0171600Y0419164D03*
X0161600Y0419164D03*
X0151600Y0419164D03*
X0141600Y0419164D03*
X0131600Y0419164D03*
X0121600Y0419164D03*
X0111600Y0419164D03*
X0101600Y0419164D03*
X0091600Y0419164D03*
X0081600Y0419164D03*
X0071600Y0419164D03*
X0061600Y0419164D03*
D23*
X0061600Y0409164D03*
X0071600Y0409164D03*
X0071600Y0399164D03*
X0061600Y0399164D03*
X0061600Y0389164D03*
X0071600Y0389164D03*
X0081600Y0389164D03*
X0081600Y0399164D03*
X0081600Y0409164D03*
X0091600Y0409164D03*
X0091600Y0399164D03*
X0091600Y0389164D03*
X0101600Y0389164D03*
X0101600Y0399164D03*
X0101600Y0409164D03*
X0111600Y0409164D03*
X0121600Y0409164D03*
X0121600Y0399164D03*
X0111600Y0399164D03*
X0111600Y0389164D03*
X0121600Y0389164D03*
X0131600Y0389164D03*
X0131600Y0399164D03*
X0131600Y0409164D03*
X0141600Y0409164D03*
X0141600Y0399164D03*
X0141600Y0389164D03*
X0151600Y0389164D03*
X0151600Y0399164D03*
X0151600Y0409164D03*
X0161600Y0409164D03*
X0171600Y0409164D03*
X0171600Y0399164D03*
X0161600Y0399164D03*
X0161600Y0389164D03*
X0171600Y0389164D03*
X0181600Y0389164D03*
X0181600Y0399164D03*
X0181600Y0409164D03*
X0191600Y0409164D03*
X0201600Y0409164D03*
X0201600Y0399164D03*
X0191600Y0399164D03*
X0191600Y0389164D03*
X0201600Y0389164D03*
X0211600Y0389164D03*
X0211600Y0399164D03*
X0211600Y0409164D03*
X0221600Y0409164D03*
X0221600Y0399164D03*
X0221600Y0389164D03*
X0231600Y0389164D03*
X0231600Y0399164D03*
X0231600Y0409164D03*
X0241600Y0409164D03*
X0251600Y0409164D03*
X0251600Y0399164D03*
X0241600Y0399164D03*
X0241600Y0389164D03*
X0251600Y0389164D03*
X0261600Y0389164D03*
X0261600Y0399164D03*
X0261600Y0409164D03*
X0271600Y0409164D03*
X0271600Y0399164D03*
X0271600Y0389164D03*
X0281600Y0389164D03*
X0281600Y0399164D03*
X0281600Y0409164D03*
X0291600Y0409164D03*
X0301600Y0409164D03*
X0301600Y0399164D03*
X0291600Y0399164D03*
X0291600Y0389164D03*
X0301600Y0389164D03*
X0311600Y0389164D03*
X0311600Y0399164D03*
X0311600Y0409164D03*
X0311600Y0379164D03*
X0311600Y0369164D03*
X0311600Y0359164D03*
X0311600Y0349164D03*
X0301600Y0349164D03*
X0301600Y0359164D03*
X0301600Y0369164D03*
X0301600Y0379164D03*
X0291600Y0379164D03*
X0291600Y0369164D03*
X0291600Y0359164D03*
X0291600Y0349164D03*
X0281600Y0349164D03*
X0281600Y0359164D03*
X0281600Y0369164D03*
X0281600Y0379164D03*
X0271600Y0379164D03*
X0261600Y0379164D03*
X0261600Y0369164D03*
X0271600Y0369164D03*
X0271600Y0359164D03*
X0261600Y0359164D03*
X0261600Y0349164D03*
X0271600Y0349164D03*
X0271600Y0329164D03*
X0261600Y0329164D03*
X0251600Y0329164D03*
X0241600Y0329164D03*
X0231600Y0329164D03*
X0221600Y0329164D03*
X0211600Y0329164D03*
X0201600Y0329164D03*
X0191600Y0329164D03*
X0181600Y0329164D03*
X0171600Y0329164D03*
X0161600Y0329164D03*
X0151600Y0329164D03*
X0141600Y0329164D03*
X0131600Y0329164D03*
X0121600Y0329164D03*
X0111600Y0329164D03*
X0101600Y0329164D03*
X0091600Y0329164D03*
X0081600Y0329164D03*
X0071600Y0329164D03*
X0061600Y0329164D03*
X0061600Y0319164D03*
X0071600Y0319164D03*
X0071600Y0309164D03*
X0061600Y0309164D03*
X0061600Y0299164D03*
X0071600Y0299164D03*
X0071600Y0289164D03*
X0061600Y0289164D03*
X0061600Y0279164D03*
X0071600Y0279164D03*
X0081600Y0279164D03*
X0081600Y0289164D03*
X0081600Y0299164D03*
X0081600Y0309164D03*
X0081600Y0319164D03*
X0091600Y0319164D03*
X0091600Y0309164D03*
X0091600Y0299164D03*
X0091600Y0289164D03*
X0091600Y0279164D03*
X0101600Y0279164D03*
X0101600Y0289164D03*
X0101600Y0299164D03*
X0101600Y0309164D03*
X0101600Y0319164D03*
X0111600Y0319164D03*
X0121600Y0319164D03*
X0121600Y0309164D03*
X0111600Y0309164D03*
X0111600Y0299164D03*
X0121600Y0299164D03*
X0121600Y0289164D03*
X0111600Y0289164D03*
X0111600Y0279164D03*
X0121600Y0279164D03*
X0131600Y0279164D03*
X0131600Y0289164D03*
X0131600Y0299164D03*
X0131600Y0309164D03*
X0131600Y0319164D03*
X0141600Y0319164D03*
X0141600Y0309164D03*
X0141600Y0299164D03*
X0141600Y0289164D03*
X0141600Y0279164D03*
X0151600Y0279164D03*
X0151600Y0289164D03*
X0151600Y0299164D03*
X0151600Y0309164D03*
X0151600Y0319164D03*
X0161600Y0319164D03*
X0171600Y0319164D03*
X0171600Y0309164D03*
X0161600Y0309164D03*
X0161600Y0299164D03*
X0171600Y0299164D03*
X0171600Y0289164D03*
X0161600Y0289164D03*
X0161600Y0279164D03*
X0171600Y0279164D03*
X0181600Y0279164D03*
X0181600Y0289164D03*
X0181600Y0299164D03*
X0181600Y0309164D03*
X0181600Y0319164D03*
X0191600Y0319164D03*
X0201600Y0319164D03*
X0201600Y0309164D03*
X0191600Y0309164D03*
X0191600Y0299164D03*
X0201600Y0299164D03*
X0201600Y0289164D03*
X0191600Y0289164D03*
X0191600Y0279164D03*
X0201600Y0279164D03*
X0211600Y0279164D03*
X0211600Y0289164D03*
X0211600Y0299164D03*
X0211600Y0309164D03*
X0211600Y0319164D03*
X0221600Y0319164D03*
X0221600Y0309164D03*
X0221600Y0299164D03*
X0221600Y0289164D03*
X0221600Y0279164D03*
X0231600Y0279164D03*
X0231600Y0289164D03*
X0231600Y0299164D03*
X0231600Y0309164D03*
X0231600Y0319164D03*
X0241600Y0319164D03*
X0251600Y0319164D03*
X0251600Y0309164D03*
X0241600Y0309164D03*
X0241600Y0299164D03*
X0251600Y0299164D03*
X0251600Y0289164D03*
X0241600Y0289164D03*
X0241600Y0279164D03*
X0251600Y0279164D03*
X0261600Y0279164D03*
X0261600Y0289164D03*
X0261600Y0299164D03*
X0261600Y0309164D03*
X0261600Y0319164D03*
X0271600Y0319164D03*
X0271600Y0309164D03*
X0271600Y0299164D03*
X0271600Y0289164D03*
X0271600Y0279164D03*
X0281600Y0279164D03*
X0281600Y0289164D03*
X0281600Y0299164D03*
X0281600Y0309164D03*
X0281600Y0319164D03*
X0281600Y0329164D03*
X0291600Y0329164D03*
X0301600Y0329164D03*
X0311600Y0329164D03*
X0311600Y0319164D03*
X0311600Y0309164D03*
X0311600Y0299164D03*
X0311600Y0289164D03*
X0311600Y0279164D03*
X0301600Y0279164D03*
X0301600Y0289164D03*
X0301600Y0299164D03*
X0301600Y0309164D03*
X0301600Y0319164D03*
X0291600Y0319164D03*
X0291600Y0309164D03*
X0291600Y0299164D03*
X0291600Y0289164D03*
X0291600Y0279164D03*
X0291600Y0269164D03*
X0301600Y0269164D03*
X0301600Y0259164D03*
X0291600Y0259164D03*
X0281600Y0259164D03*
X0281600Y0269164D03*
X0271600Y0269164D03*
X0261600Y0269164D03*
X0261600Y0259164D03*
X0271600Y0259164D03*
X0251600Y0259164D03*
X0251600Y0269164D03*
X0241600Y0269164D03*
X0241600Y0259164D03*
X0231600Y0259164D03*
X0231600Y0269164D03*
X0221600Y0269164D03*
X0211600Y0269164D03*
X0211600Y0259164D03*
X0221600Y0259164D03*
X0201600Y0259164D03*
X0201600Y0269164D03*
X0191600Y0269164D03*
X0191600Y0259164D03*
X0181600Y0259164D03*
X0181600Y0269164D03*
X0171600Y0269164D03*
X0161600Y0269164D03*
X0161600Y0259164D03*
X0171600Y0259164D03*
X0151600Y0259164D03*
X0151600Y0269164D03*
X0141600Y0269164D03*
X0131600Y0269164D03*
X0131600Y0259164D03*
X0141600Y0259164D03*
X0121600Y0259164D03*
X0121600Y0269164D03*
X0111600Y0269164D03*
X0111600Y0259164D03*
X0101600Y0259164D03*
X0101600Y0269164D03*
X0091600Y0269164D03*
X0081600Y0269164D03*
X0081600Y0259164D03*
X0091600Y0259164D03*
X0071600Y0259164D03*
X0071600Y0269164D03*
X0061600Y0269164D03*
X0061600Y0259164D03*
X0061600Y0349164D03*
X0061600Y0359164D03*
X0061600Y0369164D03*
X0061600Y0379164D03*
X0071600Y0379164D03*
X0071600Y0369164D03*
X0071600Y0359164D03*
X0071600Y0349164D03*
X0081600Y0349164D03*
X0081600Y0359164D03*
X0081600Y0369164D03*
X0081600Y0379164D03*
X0091600Y0379164D03*
X0091600Y0369164D03*
X0091600Y0359164D03*
X0091600Y0349164D03*
X0101600Y0349164D03*
X0101600Y0359164D03*
X0101600Y0369164D03*
X0101600Y0379164D03*
X0111600Y0379164D03*
X0121600Y0379164D03*
X0121600Y0369164D03*
X0111600Y0369164D03*
X0111600Y0359164D03*
X0121600Y0359164D03*
X0121600Y0349164D03*
X0111600Y0349164D03*
X0131600Y0349164D03*
X0131600Y0359164D03*
X0131600Y0369164D03*
X0131600Y0379164D03*
X0141600Y0379164D03*
X0141600Y0369164D03*
X0141600Y0359164D03*
X0141600Y0349164D03*
X0151600Y0349164D03*
X0151600Y0359164D03*
X0151600Y0369164D03*
X0151600Y0379164D03*
X0161600Y0379164D03*
X0171600Y0379164D03*
X0171600Y0369164D03*
X0161600Y0369164D03*
X0161600Y0359164D03*
X0171600Y0359164D03*
X0171600Y0349164D03*
X0161600Y0349164D03*
X0181600Y0349164D03*
X0181600Y0359164D03*
X0181600Y0369164D03*
X0181600Y0379164D03*
X0191600Y0379164D03*
X0201600Y0379164D03*
X0201600Y0369164D03*
X0191600Y0369164D03*
X0191600Y0359164D03*
X0201600Y0359164D03*
X0201600Y0349164D03*
X0191600Y0349164D03*
X0211600Y0349164D03*
X0211600Y0359164D03*
X0211600Y0369164D03*
X0211600Y0379164D03*
X0221600Y0379164D03*
X0221600Y0369164D03*
X0221600Y0359164D03*
X0221600Y0349164D03*
X0231600Y0349164D03*
X0231600Y0359164D03*
X0231600Y0369164D03*
X0231600Y0379164D03*
X0241600Y0379164D03*
X0251600Y0379164D03*
X0251600Y0369164D03*
X0241600Y0369164D03*
X0241600Y0359164D03*
X0251600Y0359164D03*
X0251600Y0349164D03*
X0241600Y0349164D03*
X0311600Y0269164D03*
X0311600Y0259164D03*
D24*
X0341600Y0084164D03*
M02*
