%
M48
M72
T01C0.01200
T02C0.01578
T03C0.03200
T04C0.03543
T05C0.03937
T06C0.04000
T07C0.04331
T08C0.04700
T09C0.08661
T10C0.15550
%
T01
X22850Y41664
X29100Y50414
X32850Y54164
X40350Y49164
X36600Y45414
X44100Y55414
X55350Y65414
X64100Y75414
X66600Y82914
X60350Y84164
X64100Y96664
X60350Y100414
X56600Y104164
X52850Y107914
X47850Y99164
X41600Y112914
X37850Y116664
X34988Y120214
X34625Y124489
X34263Y130214
X34263Y135939
X34263Y141664
X34263Y147389
X34263Y153114
X35350Y167914
X35350Y175414
X35350Y182914
X35350Y190414
X35350Y197914
X40038Y202601
X35350Y205414
X35350Y211664
X35350Y216664
X35350Y221664
X35350Y226664
X35350Y231664
X35350Y236664
X35350Y241664
X35350Y246664
X32850Y255414
X31600Y264164
X27850Y270414
X32850Y275414
X25350Y277914
X22850Y285414
X20350Y292914
X17850Y300414
X15350Y307914
X12850Y315414
X10350Y322914
X5350Y321664
X5350Y316664
X5350Y311664
X5350Y306664
X5350Y301664
X5350Y296664
X5350Y291664
X5350Y286664
X5350Y281664
X5350Y276664
X5350Y271664
X5350Y266664
X5350Y261664
X5350Y256664
X5350Y251664
X5350Y246664
X5350Y241664
X5350Y236664
X5350Y231664
X5350Y226664
X5350Y221664
X5350Y216664
X5350Y211664
X5350Y206664
X5350Y201664
X5350Y196664
X5350Y191664
X5350Y186664
X5350Y181664
X5350Y176664
X5350Y171664
X5350Y166664
X5350Y161664
X5350Y156664
X5350Y151664
X5350Y146664
X5350Y141664
X5350Y136664
X5350Y131664
X5350Y126664
X5350Y121664
X5350Y116664
X5350Y111664
X5350Y106664
X7850Y102914
X11600Y99164
X15350Y95414
X19100Y91664
X22850Y87914
X25350Y84164
X30350Y84164
X35350Y75414
X20350Y64164
X6600Y65414
X6600Y74164
X6600Y82914
X12850Y86664
X6600Y91664
X6600Y56664
X56187Y36664
X57850Y46664
X61600Y54164
X65350Y50414
X71913Y50414
X71600Y44789
X65350Y45414
X86188Y37914
X89100Y49164
X94100Y54164
X99100Y51664
X97850Y45414
X107850Y55414
X115350Y54164
X117850Y45414
X115350Y37914
X135350Y35414
X147850Y36664
X149100Y44164
X157850Y49164
X171600Y50414
X177850Y46664
X181600Y50414
X185350Y46664
X191600Y45414
X190350Y35414
X199725Y38539
X207850Y46039
X221600Y46039
X226287Y37601
X240350Y57914
X225350Y72914
X225350Y80414
X222850Y87914
X215350Y114164
X210350Y125414
X216600Y135414
X227850Y135414
X236600Y139164
X227850Y149164
X214100Y149164
X202850Y149164
X182850Y149164
X169100Y149164
X157850Y149164
X171600Y135414
X165350Y125414
X170350Y114164
X182850Y135414
X188737Y179164
X194462Y179164
X202850Y179164
X206600Y190414
X212225Y190414
X220350Y195414
X214100Y202914
X210350Y209164
X206600Y202914
X194462Y202914
X188737Y202914
X191600Y214164
X195975Y215676
X205250Y215676
X214100Y216664
X224100Y214164
X231600Y214164
X236600Y214164
X242850Y214164
X247850Y223539
X237850Y230414
X234100Y223539
X222850Y223539
X233737Y202914
X239462Y202914
X251600Y202914
X255350Y209164
X256600Y214164
X260350Y223539
X257850Y230414
X267850Y230414
X274100Y224164
X279100Y230414
X284100Y226664
X281600Y216664
X285350Y214164
X278738Y202914
X278738Y190051
X278738Y179164
X284463Y179164
X264100Y190414
X257225Y190414
X251600Y190414
X247850Y179164
X239462Y179164
X233737Y179164
X233737Y190414
X239462Y190414
X256600Y179164
X259100Y202914
X269100Y215414
X310350Y227914
X334100Y229164
X341600Y221664
X351600Y221664
X351600Y211664
X351600Y201664
X341600Y207914
X351600Y191664
X351600Y181664
X341600Y187914
X347850Y169164
X351600Y164164
X347850Y159164
X351600Y154164
X347850Y147914
X351600Y139164
X337850Y135414
X337850Y127914
X351600Y119164
X351600Y104164
X341600Y97914
X351600Y89164
X352537Y79164
X346600Y79164
X354100Y69164
X352850Y62914
X340350Y55414
X337850Y47914
X325350Y56664
X320350Y44164
X322850Y40776
X306600Y40776
X312850Y70414
X299100Y70414
X315350Y90414
X324100Y96664
X329100Y91664
X324100Y81664
X331600Y75414
X307850Y99164
X311600Y111664
X320350Y111664
X325350Y116664
X320350Y120414
X325350Y126664
X320350Y132914
X325350Y139164
X320350Y146664
X320350Y159164
X321600Y167914
X307850Y167914
X309100Y159164
X309100Y146664
X302850Y139164
X309100Y132914
X306600Y124164
X300350Y125414
X299100Y116664
X287850Y106664
X279100Y94164
X264100Y84164
X275350Y70414
X269100Y64164
X282850Y64164
X267850Y49164
X269413Y42601
X249100Y35414
X245350Y35414
X191600Y70414
X181600Y70414
X181600Y60414
X171600Y70414
X161600Y35414
X111600Y85414
X95350Y92914
X77850Y90414
X76600Y85414
X72850Y79164
X77850Y65414
X62850Y112914
X82850Y115414
X80975Y149164
X73475Y149164
X92850Y149164
X112850Y149164
X124100Y149164
X137850Y149164
X137850Y135414
X126600Y135414
X121600Y125414
X129100Y114164
X73213Y178076
X67488Y177914
X64100Y179164
X55350Y179164
X50037Y182601
X47537Y187601
X45037Y192601
X42538Y197601
X59100Y202914
X62850Y209164
X71600Y214164
X75350Y216039
X82850Y213901
X80350Y209164
X76600Y202914
X84100Y202914
X90875Y213901
X96237Y216301
X101600Y213801
X98737Y202914
X104462Y202914
X111287Y213801
X116600Y216351
X120350Y209164
X116600Y202914
X124100Y202914
X122225Y190414
X116600Y190414
X112850Y179164
X104462Y179164
X98737Y179164
X98737Y190414
X104462Y190414
X91600Y190414
X82225Y190414
X76600Y190414
X81600Y179164
X87850Y179164
X64725Y190414
X59100Y190414
X54725Y227289
X58475Y231664
X32850Y285414
X32850Y295414
X32850Y305414
X32850Y315414
X32850Y325414
X32850Y335414
X32850Y345414
X134988Y216301
X141238Y216301
X146600Y213801
X154988Y216301
X161238Y216301
X165350Y209164
X161600Y202914
X169100Y202914
X175350Y195414
X167225Y190414
X161600Y190414
X157850Y179164
X149463Y179164
X143738Y179164
X143738Y190414
X149463Y190414
X149463Y202914
X143738Y202914
X130350Y190414
X121600Y179164
X166600Y179164
X188737Y190414
X194462Y190414
X211600Y179164
X187225Y215676
X174987Y216301
X196600Y226351
X206600Y229164
X247850Y149164
X259100Y149164
X261600Y135414
X255350Y125414
X255350Y106664
X272850Y135414
X280350Y140414
X272850Y149164
X294100Y149164
X332850Y147914
X335350Y159164
X346600Y231664
X351600Y234164
X351600Y244164
X354100Y251664
X355975Y259789
X355975Y269789
X355975Y279789
X355975Y289789
X355975Y299789
X364725Y306664
X364100Y316664
X356600Y324164
X355975Y312289
X340350Y315414
X340350Y305414
X340350Y295414
X340350Y285414
X340350Y275414
X340350Y265414
X340350Y255414
X340350Y245414
X339100Y239164
X364725Y281039
X364725Y290414
X340350Y329164
X340350Y338539
X49100Y149164
T02
X75350Y107914
X81600Y107914
X87850Y107914
X90350Y92914
X82850Y92914
X32840Y79174
X291600Y85414
X305350Y47914
T03
X300850Y97914
X314850Y97914
X341600Y117914
X341600Y147914
X336600Y195414
X306600Y195414
X287850Y201164
X287850Y187164
X291600Y239164
X301600Y239164
X311600Y239164
X321600Y239164
X331600Y239164
X331600Y259164
X331600Y269164
X331600Y279164
X331600Y289164
X331600Y299164
X331600Y309164
X331600Y319164
X331600Y329164
X331600Y339164
X311600Y339164
X311600Y349164
X311600Y359164
X311600Y369164
X311600Y379164
X311600Y389164
X311600Y399164
X311600Y409164
X311600Y419164
X301600Y419164
X291600Y419164
X291600Y409164
X301600Y409164
X301600Y399164
X291600Y399164
X291600Y389164
X301600Y389164
X301600Y379164
X291600Y379164
X291600Y369164
X301600Y369164
X301600Y359164
X291600Y359164
X291600Y349164
X301600Y349164
X301600Y339164
X291600Y339164
X291600Y329164
X301600Y329164
X311600Y329164
X311600Y319164
X311600Y309164
X311600Y299164
X311600Y289164
X311600Y279164
X301600Y279164
X301600Y289164
X301600Y299164
X301600Y309164
X301600Y319164
X291600Y319164
X291600Y309164
X291600Y299164
X291600Y289164
X291600Y279164
X281600Y279164
X281600Y289164
X281600Y299164
X281600Y309164
X281600Y319164
X281600Y329164
X281600Y339164
X281600Y349164
X281600Y359164
X281600Y369164
X281600Y379164
X281600Y389164
X281600Y399164
X281600Y409164
X281600Y419164
X271600Y419164
X261600Y419164
X261600Y409164
X271600Y409164
X271600Y399164
X261600Y399164
X261600Y389164
X271600Y389164
X271600Y379164
X261600Y379164
X261600Y369164
X271600Y369164
X271600Y359164
X261600Y359164
X261600Y349164
X271600Y349164
X271600Y339164
X261600Y339164
X261600Y329164
X271600Y329164
X271600Y319164
X261600Y319164
X261600Y309164
X271600Y309164
X271600Y299164
X261600Y299164
X261600Y289164
X271600Y289164
X271600Y279164
X261600Y279164
X251600Y279164
X251600Y289164
X251600Y299164
X251600Y309164
X251600Y319164
X241600Y319164
X241600Y309164
X241600Y299164
X241600Y289164
X241600Y279164
X231600Y279164
X231600Y289164
X231600Y299164
X231600Y309164
X231600Y319164
X231600Y329164
X231600Y339164
X231600Y349164
X231600Y359164
X231600Y369164
X231600Y379164
X231600Y389164
X231600Y399164
X231600Y409164
X231600Y419164
X221600Y419164
X211600Y419164
X211600Y409164
X221600Y409164
X221600Y399164
X211600Y399164
X211600Y389164
X221600Y389164
X221600Y379164
X211600Y379164
X211600Y369164
X221600Y369164
X221600Y359164
X211600Y359164
X211600Y349164
X221600Y349164
X221600Y339164
X211600Y339164
X211600Y329164
X221600Y329164
X221600Y319164
X211600Y319164
X211600Y309164
X221600Y309164
X221600Y299164
X211600Y299164
X211600Y289164
X221600Y289164
X221600Y279164
X211600Y279164
X201600Y279164
X201600Y289164
X201600Y299164
X201600Y309164
X201600Y319164
X191600Y319164
X191600Y309164
X191600Y299164
X191600Y289164
X191600Y279164
X181600Y279164
X181600Y289164
X181600Y299164
X181600Y309164
X181600Y319164
X181600Y329164
X181600Y339164
X181600Y349164
X181600Y359164
X181600Y369164
X181600Y379164
X181600Y389164
X181600Y399164
X181600Y409164
X181600Y419164
X171600Y419164
X161600Y419164
X161600Y409164
X171600Y409164
X171600Y399164
X161600Y399164
X161600Y389164
X171600Y389164
X171600Y379164
X161600Y379164
X161600Y369164
X171600Y369164
X171600Y359164
X161600Y359164
X161600Y349164
X171600Y349164
X171600Y339164
X161600Y339164
X161600Y329164
X171600Y329164
X171600Y319164
X161600Y319164
X161600Y309164
X171600Y309164
X171600Y299164
X161600Y299164
X161600Y289164
X171600Y289164
X171600Y279164
X161600Y279164
X151600Y279164
X151600Y289164
X151600Y299164
X151600Y309164
X151600Y319164
X151600Y329164
X151600Y339164
X151600Y349164
X151600Y359164
X151600Y369164
X151600Y379164
X151600Y389164
X151600Y399164
X151600Y409164
X151600Y419164
X141600Y419164
X131600Y419164
X131600Y409164
X141600Y409164
X141600Y399164
X131600Y399164
X131600Y389164
X141600Y389164
X141600Y379164
X131600Y379164
X131600Y369164
X141600Y369164
X141600Y359164
X131600Y359164
X131600Y349164
X141600Y349164
X141600Y339164
X131600Y339164
X131600Y329164
X141600Y329164
X141600Y319164
X131600Y319164
X131600Y309164
X141600Y309164
X141600Y299164
X131600Y299164
X131600Y289164
X141600Y289164
X141600Y279164
X131600Y279164
X121600Y279164
X121600Y289164
X121600Y299164
X121600Y309164
X121600Y319164
X111600Y319164
X111600Y309164
X111600Y299164
X111600Y289164
X111600Y279164
X101600Y279164
X101600Y289164
X101600Y299164
X101600Y309164
X101600Y319164
X101600Y329164
X101600Y339164
X101600Y349164
X101600Y359164
X101600Y369164
X101600Y379164
X101600Y389164
X101600Y399164
X101600Y409164
X101600Y419164
X91600Y419164
X81600Y419164
X81600Y409164
X91600Y409164
X91600Y399164
X81600Y399164
X81600Y389164
X91600Y389164
X91600Y379164
X81600Y379164
X81600Y369164
X91600Y369164
X91600Y359164
X81600Y359164
X81600Y349164
X91600Y349164
X91600Y339164
X81600Y339164
X81600Y329164
X91600Y329164
X91600Y319164
X81600Y319164
X81600Y309164
X91600Y309164
X91600Y299164
X81600Y299164
X81600Y289164
X91600Y289164
X91600Y279164
X81600Y279164
X71600Y279164
X71600Y289164
X71600Y299164
X71600Y309164
X71600Y319164
X61600Y319164
X61600Y309164
X61600Y299164
X61600Y289164
X61600Y279164
X61600Y269164
X71600Y269164
X71600Y259164
X61600Y259164
X61600Y239164
X71600Y239164
X81600Y239164
X91600Y239164
X101600Y239164
X111600Y239164
X121600Y239164
X131600Y239164
X141600Y239164
X151600Y239164
X161600Y239164
X171600Y239164
X181600Y239164
X191600Y239164
X201600Y239164
X211600Y239164
X221600Y239164
X231600Y239164
X241600Y239164
X251600Y239164
X261600Y239164
X271600Y239164
X281600Y239164
X281600Y259164
X281600Y269164
X271600Y269164
X261600Y269164
X261600Y259164
X271600Y259164
X251600Y259164
X251600Y269164
X241600Y269164
X241600Y259164
X231600Y259164
X231600Y269164
X221600Y269164
X211600Y269164
X211600Y259164
X221600Y259164
X201600Y259164
X201600Y269164
X191600Y269164
X191600Y259164
X181600Y259164
X181600Y269164
X171600Y269164
X161600Y269164
X161600Y259164
X171600Y259164
X151600Y259164
X151600Y269164
X141600Y269164
X131600Y269164
X131600Y259164
X141600Y259164
X121600Y259164
X121600Y269164
X111600Y269164
X111600Y259164
X101600Y259164
X101600Y269164
X91600Y269164
X81600Y269164
X81600Y259164
X91600Y259164
X51600Y239164
X41600Y259164
X41600Y269164
X41600Y279164
X41600Y289164
X41600Y299164
X41600Y309164
X41600Y319164
X41600Y329164
X41600Y339164
X41600Y349164
X61600Y349164
X61600Y359164
X61600Y369164
X61600Y379164
X71600Y379164
X71600Y369164
X71600Y359164
X71600Y349164
X71600Y339164
X61600Y339164
X61600Y329164
X71600Y329164
X111600Y329164
X111600Y339164
X111600Y349164
X111600Y359164
X111600Y369164
X111600Y379164
X121600Y379164
X121600Y369164
X121600Y359164
X121600Y349164
X121600Y339164
X121600Y329164
X121600Y389164
X121600Y399164
X121600Y409164
X121600Y419164
X111600Y419164
X111600Y409164
X111600Y399164
X111600Y389164
X71600Y389164
X71600Y399164
X71600Y409164
X71600Y419164
X61600Y419164
X61600Y409164
X61600Y399164
X61600Y389164
X191600Y389164
X191600Y399164
X191600Y409164
X191600Y419164
X201600Y419164
X201600Y409164
X201600Y399164
X201600Y389164
X201600Y379164
X191600Y379164
X191600Y369164
X201600Y369164
X201600Y359164
X191600Y359164
X191600Y349164
X201600Y349164
X201600Y339164
X191600Y339164
X191600Y329164
X201600Y329164
X241600Y329164
X241600Y339164
X241600Y349164
X241600Y359164
X241600Y369164
X241600Y379164
X251600Y379164
X251600Y369164
X251600Y359164
X251600Y349164
X251600Y339164
X251600Y329164
X251600Y389164
X251600Y399164
X251600Y409164
X251600Y419164
X241600Y419164
X241600Y409164
X241600Y399164
X241600Y389164
X291600Y269164
X301600Y269164
X301600Y259164
X291600Y259164
X311600Y259164
X311600Y269164
T04
X311757Y216664
X331443Y216664
X334986Y183485
X321600Y183485
X308214Y183485
X314907Y168130
X328293Y168130
X341600Y84164
T05
X216600Y85414
X216600Y75414
X216600Y65414
X216600Y55414
X206600Y55414
X206600Y65414
X206600Y75414
X206600Y85414
X196600Y85414
X196600Y75414
X196600Y65414
X196600Y55414
X186600Y55414
X186600Y65414
X186600Y75414
X186600Y85414
X176600Y85414
X176600Y75414
X176600Y65414
X176600Y55414
X166600Y55414
X166600Y65414
X166600Y75414
X166600Y85414
X156600Y85414
X146600Y85414
X146600Y75414
X156600Y75414
X156600Y65414
X146600Y65414
X146600Y55414
X156600Y55414
X136600Y55414
X136600Y65414
X136600Y75414
X136600Y85414
X126600Y85414
X126600Y75414
X126600Y65414
X126600Y55414
T06
X131600Y125414
X141600Y125414
X151600Y125414
X176600Y125414
X186600Y125414
X196600Y125414
X221600Y125414
X231600Y125414
X241600Y125414
X266600Y125414
X276600Y125414
X286600Y125414
X286600Y160414
X276600Y160414
X266600Y160414
X241600Y160414
X231600Y160414
X221600Y160414
X196600Y160414
X186600Y160414
X176600Y160414
X151600Y160414
X141600Y160414
X131600Y160414
X106600Y160414
X96600Y160414
X86600Y160414
X61600Y160414
X51600Y160414
X41600Y160414
X41600Y125414
X51600Y125414
X61600Y125414
X86600Y125414
X96600Y125414
X106600Y125414
T07
X231600Y85414
X231600Y75414
X231600Y65414
X231600Y55414
X246600Y55414
X246600Y65414
X246600Y75414
X246600Y85414
T08
X331600Y65414
X341600Y105414
T09
X270350Y90414
X102850Y90414
T10
X86600Y75414
X286600Y75414
M30
