G75*
%MOIN*%
%OFA0B0*%
%FSLAX25Y25*%
%IPPOS*%
%LPD*%
%AMOC8*
5,1,8,0,0,1.08239X$1,22.5*
%
%ADD10C,0.01000*%
%ADD11C,0.00400*%
%ADD12C,0.00300*%
%ADD13C,0.00800*%
%ADD14C,0.01181*%
D10*
X0052850Y0085414D02*
X0055350Y0087914D01*
X0055350Y0101664D01*
X0060350Y0106664D01*
X0086600Y0095414D02*
X0086600Y0090414D01*
X0086737Y0065839D02*
X0103275Y0065839D01*
X0108787Y0071351D01*
X0086737Y0065839D02*
X0084900Y0064001D01*
D11*
X0036202Y0028864D02*
X0035435Y0029631D01*
X0035435Y0031166D01*
X0036202Y0031933D01*
X0036969Y0031933D01*
X0038504Y0031166D01*
X0038504Y0033468D01*
X0035435Y0033468D01*
X0040039Y0033468D02*
X0040039Y0029631D01*
X0040806Y0028864D01*
X0042341Y0028864D01*
X0043108Y0029631D01*
X0043108Y0033468D01*
X0038504Y0029631D02*
X0037737Y0028864D01*
X0036202Y0028864D01*
X0049185Y0028864D02*
X0052254Y0028864D01*
X0049185Y0031933D01*
X0049185Y0032700D01*
X0049952Y0033468D01*
X0051487Y0033468D01*
X0052254Y0032700D01*
X0053789Y0032700D02*
X0054556Y0033468D01*
X0056091Y0033468D01*
X0056858Y0032700D01*
X0056858Y0029631D01*
X0056091Y0028864D01*
X0054556Y0028864D01*
X0053789Y0029631D01*
X0067935Y0028864D02*
X0071004Y0028864D01*
X0067935Y0031933D01*
X0067935Y0032700D01*
X0068702Y0033468D01*
X0070237Y0033468D01*
X0071004Y0032700D01*
X0072539Y0033468D02*
X0072539Y0029631D01*
X0073306Y0028864D01*
X0074841Y0028864D01*
X0075608Y0029631D01*
X0075608Y0033468D01*
X0079185Y0028864D02*
X0082254Y0028864D01*
X0080719Y0028864D02*
X0080719Y0033468D01*
X0082254Y0031933D01*
X0083789Y0032700D02*
X0084556Y0033468D01*
X0086091Y0033468D01*
X0086858Y0032700D01*
X0086858Y0029631D01*
X0086091Y0028864D01*
X0084556Y0028864D01*
X0083789Y0029631D01*
X0097935Y0028864D02*
X0101004Y0028864D01*
X0099469Y0028864D02*
X0099469Y0033468D01*
X0101004Y0031933D01*
X0102539Y0033468D02*
X0102539Y0029631D01*
X0103306Y0028864D01*
X0104841Y0028864D01*
X0105608Y0029631D01*
X0105608Y0033468D01*
X0065633Y0097364D02*
X0064098Y0097364D01*
X0063331Y0098131D01*
X0063331Y0101968D01*
X0061796Y0101200D02*
X0061029Y0101968D01*
X0059494Y0101968D01*
X0058727Y0101200D01*
X0058727Y0100433D01*
X0059494Y0099666D01*
X0058727Y0098899D01*
X0058727Y0098131D01*
X0059494Y0097364D01*
X0061029Y0097364D01*
X0061796Y0098131D01*
X0060261Y0099666D02*
X0059494Y0099666D01*
X0063702Y0104364D02*
X0065237Y0104364D01*
X0066004Y0105131D01*
X0067539Y0105131D02*
X0068306Y0104364D01*
X0069841Y0104364D01*
X0070608Y0105131D01*
X0070608Y0108200D01*
X0069841Y0108968D01*
X0068306Y0108968D01*
X0067539Y0108200D01*
X0066004Y0108200D02*
X0065237Y0108968D01*
X0063702Y0108968D01*
X0062935Y0108200D01*
X0062935Y0107433D01*
X0063702Y0106666D01*
X0062935Y0105899D01*
X0062935Y0105131D01*
X0063702Y0104364D01*
X0063702Y0106666D02*
X0064469Y0106666D01*
X0066400Y0101968D02*
X0066400Y0098131D01*
X0065633Y0097364D01*
X0079977Y0111381D02*
X0080744Y0110614D01*
X0082279Y0110614D01*
X0083046Y0111381D01*
X0084581Y0110614D02*
X0086115Y0112149D01*
X0085348Y0112149D02*
X0087650Y0112149D01*
X0087650Y0110614D02*
X0087650Y0115218D01*
X0085348Y0115218D01*
X0084581Y0114450D01*
X0084581Y0112916D01*
X0085348Y0112149D01*
X0083046Y0114450D02*
X0082279Y0115218D01*
X0080744Y0115218D01*
X0079977Y0114450D01*
X0079977Y0113683D01*
X0080744Y0112916D01*
X0079977Y0112149D01*
X0079977Y0111381D01*
X0080744Y0112916D02*
X0081511Y0112916D01*
X0042650Y0112149D02*
X0040348Y0112149D01*
X0039581Y0112916D01*
X0039581Y0114450D01*
X0040348Y0115218D01*
X0042650Y0115218D01*
X0042650Y0110614D01*
X0041115Y0112149D02*
X0039581Y0110614D01*
X0038046Y0110614D02*
X0034977Y0110614D01*
X0036511Y0110614D02*
X0036511Y0115218D01*
X0038046Y0113683D01*
X0036400Y0101968D02*
X0036400Y0098131D01*
X0035633Y0097364D01*
X0034098Y0097364D01*
X0033331Y0098131D01*
X0033331Y0101968D01*
X0031796Y0099666D02*
X0028727Y0099666D01*
X0029494Y0097364D02*
X0029494Y0101968D01*
X0031796Y0099666D01*
X0038727Y0170614D02*
X0041796Y0170614D01*
X0038727Y0173683D01*
X0038727Y0174450D01*
X0039494Y0175218D01*
X0041029Y0175218D01*
X0041796Y0174450D01*
X0043331Y0174450D02*
X0043331Y0172916D01*
X0044098Y0172149D01*
X0046400Y0172149D01*
X0044865Y0172149D02*
X0043331Y0170614D01*
X0046400Y0170614D02*
X0046400Y0175218D01*
X0044098Y0175218D01*
X0043331Y0174450D01*
X0043113Y0182573D02*
X0043113Y0187176D01*
X0044648Y0185642D01*
X0046183Y0185642D02*
X0049252Y0182573D01*
X0046183Y0182573D01*
X0044648Y0182573D02*
X0041579Y0182573D01*
X0046183Y0185642D02*
X0046183Y0186409D01*
X0046950Y0187176D01*
X0048484Y0187176D01*
X0049252Y0186409D01*
X0050786Y0186409D02*
X0050786Y0183340D01*
X0051554Y0182573D01*
X0053088Y0182573D01*
X0053856Y0183340D01*
X0053856Y0186409D01*
X0053088Y0187176D01*
X0051554Y0187176D01*
X0050786Y0186409D01*
X0052321Y0184107D02*
X0050786Y0182573D01*
X0051411Y0193823D02*
X0052946Y0195357D01*
X0052179Y0193823D02*
X0053713Y0193823D01*
X0054481Y0194590D01*
X0054481Y0197659D01*
X0053713Y0198426D01*
X0052179Y0198426D01*
X0051411Y0197659D01*
X0051411Y0194590D01*
X0052179Y0193823D01*
X0049877Y0193823D02*
X0046808Y0196892D01*
X0046808Y0197659D01*
X0047575Y0198426D01*
X0049109Y0198426D01*
X0049877Y0197659D01*
X0049877Y0193823D02*
X0046808Y0193823D01*
X0045273Y0193823D02*
X0042204Y0196892D01*
X0042204Y0197659D01*
X0042971Y0198426D01*
X0044506Y0198426D01*
X0045273Y0197659D01*
X0045273Y0193823D02*
X0042204Y0193823D01*
X0079977Y0172916D02*
X0083046Y0172916D01*
X0080744Y0175218D01*
X0080744Y0170614D01*
X0084581Y0170614D02*
X0086115Y0172149D01*
X0085348Y0172149D02*
X0087650Y0172149D01*
X0087650Y0170614D02*
X0087650Y0175218D01*
X0085348Y0175218D01*
X0084581Y0174450D01*
X0084581Y0172916D01*
X0085348Y0172149D01*
X0088746Y0182405D02*
X0090281Y0182405D01*
X0091048Y0183173D01*
X0092583Y0182405D02*
X0095652Y0182405D01*
X0092583Y0185474D01*
X0092583Y0186242D01*
X0093350Y0187009D01*
X0094885Y0187009D01*
X0095652Y0186242D01*
X0097187Y0186242D02*
X0097187Y0183173D01*
X0097954Y0182405D01*
X0099489Y0182405D01*
X0100256Y0183173D01*
X0100256Y0186242D01*
X0099489Y0187009D01*
X0097954Y0187009D01*
X0097187Y0186242D01*
X0098721Y0183940D02*
X0097187Y0182405D01*
X0091048Y0186242D02*
X0090281Y0187009D01*
X0088746Y0187009D01*
X0087979Y0186242D01*
X0087979Y0185474D01*
X0088746Y0184707D01*
X0087979Y0183940D01*
X0087979Y0183173D01*
X0088746Y0182405D01*
X0088746Y0184707D02*
X0089514Y0184707D01*
X0088121Y0193655D02*
X0088121Y0198259D01*
X0090423Y0195957D01*
X0087354Y0195957D01*
X0091958Y0196724D02*
X0091958Y0197492D01*
X0092725Y0198259D01*
X0094260Y0198259D01*
X0095027Y0197492D01*
X0096562Y0197492D02*
X0096562Y0194423D01*
X0097329Y0193655D01*
X0098864Y0193655D01*
X0099631Y0194423D01*
X0099631Y0197492D01*
X0098864Y0198259D01*
X0097329Y0198259D01*
X0096562Y0197492D01*
X0098096Y0195190D02*
X0096562Y0193655D01*
X0095027Y0193655D02*
X0091958Y0196724D01*
X0091958Y0193655D02*
X0095027Y0193655D01*
X0124977Y0175218D02*
X0126511Y0174450D01*
X0128046Y0172916D01*
X0125744Y0172916D01*
X0124977Y0172149D01*
X0124977Y0171381D01*
X0125744Y0170614D01*
X0127279Y0170614D01*
X0128046Y0171381D01*
X0128046Y0172916D01*
X0129581Y0172916D02*
X0130348Y0172149D01*
X0132650Y0172149D01*
X0131115Y0172149D02*
X0129581Y0170614D01*
X0129581Y0172916D02*
X0129581Y0174450D01*
X0130348Y0175218D01*
X0132650Y0175218D01*
X0132650Y0170614D01*
X0132583Y0182405D02*
X0135652Y0182405D01*
X0132583Y0185474D01*
X0132583Y0186242D01*
X0133350Y0187009D01*
X0134885Y0187009D01*
X0135652Y0186242D01*
X0137187Y0186242D02*
X0137187Y0183173D01*
X0137954Y0182405D01*
X0139489Y0182405D01*
X0140256Y0183173D01*
X0140256Y0186242D01*
X0139489Y0187009D01*
X0137954Y0187009D01*
X0137187Y0186242D01*
X0138721Y0183940D02*
X0137187Y0182405D01*
X0131048Y0183173D02*
X0130281Y0182405D01*
X0128746Y0182405D01*
X0127979Y0183173D01*
X0127979Y0184707D01*
X0128746Y0185474D01*
X0129514Y0185474D01*
X0131048Y0184707D01*
X0131048Y0187009D01*
X0127979Y0187009D01*
X0128121Y0193655D02*
X0127354Y0194423D01*
X0127354Y0195190D01*
X0128121Y0195957D01*
X0130423Y0195957D01*
X0130423Y0194423D01*
X0129656Y0193655D01*
X0128121Y0193655D01*
X0130423Y0195957D02*
X0128889Y0197492D01*
X0127354Y0198259D01*
X0131958Y0197492D02*
X0132725Y0198259D01*
X0134260Y0198259D01*
X0135027Y0197492D01*
X0136562Y0197492D02*
X0136562Y0194423D01*
X0137329Y0193655D01*
X0138864Y0193655D01*
X0139631Y0194423D01*
X0139631Y0197492D01*
X0138864Y0198259D01*
X0137329Y0198259D01*
X0136562Y0197492D01*
X0138096Y0195190D02*
X0136562Y0193655D01*
X0135027Y0193655D02*
X0131958Y0196724D01*
X0131958Y0197492D01*
X0131958Y0193655D02*
X0135027Y0193655D01*
X0172354Y0194423D02*
X0173121Y0193655D01*
X0174656Y0193655D01*
X0175423Y0194423D01*
X0175423Y0195190D01*
X0174656Y0195957D01*
X0173121Y0195957D01*
X0172354Y0195190D01*
X0172354Y0194423D01*
X0173121Y0195957D02*
X0172354Y0196724D01*
X0172354Y0197492D01*
X0173121Y0198259D01*
X0174656Y0198259D01*
X0175423Y0197492D01*
X0175423Y0196724D01*
X0174656Y0195957D01*
X0176958Y0196724D02*
X0176958Y0197492D01*
X0177725Y0198259D01*
X0179260Y0198259D01*
X0180027Y0197492D01*
X0181562Y0197492D02*
X0181562Y0194423D01*
X0182329Y0193655D01*
X0183864Y0193655D01*
X0184631Y0194423D01*
X0184631Y0197492D01*
X0183864Y0198259D01*
X0182329Y0198259D01*
X0181562Y0197492D01*
X0183096Y0195190D02*
X0181562Y0193655D01*
X0180027Y0193655D02*
X0176958Y0196724D01*
X0176958Y0193655D02*
X0180027Y0193655D01*
X0179885Y0187009D02*
X0180652Y0186242D01*
X0179885Y0187009D02*
X0178350Y0187009D01*
X0177583Y0186242D01*
X0177583Y0185474D01*
X0180652Y0182405D01*
X0177583Y0182405D01*
X0176048Y0182405D02*
X0176048Y0183173D01*
X0172979Y0186242D01*
X0172979Y0187009D01*
X0176048Y0187009D01*
X0182187Y0186242D02*
X0182187Y0183173D01*
X0182954Y0182405D01*
X0184489Y0182405D01*
X0185256Y0183173D01*
X0185256Y0186242D01*
X0184489Y0187009D01*
X0182954Y0187009D01*
X0182187Y0186242D01*
X0183721Y0183940D02*
X0182187Y0182405D01*
X0177650Y0175218D02*
X0175348Y0175218D01*
X0174581Y0174450D01*
X0174581Y0172916D01*
X0175348Y0172149D01*
X0177650Y0172149D01*
X0176115Y0172149D02*
X0174581Y0170614D01*
X0173046Y0171381D02*
X0173046Y0172149D01*
X0172279Y0172916D01*
X0170744Y0172916D01*
X0169977Y0172149D01*
X0169977Y0171381D01*
X0170744Y0170614D01*
X0172279Y0170614D01*
X0173046Y0171381D01*
X0172279Y0172916D02*
X0173046Y0173683D01*
X0173046Y0174450D01*
X0172279Y0175218D01*
X0170744Y0175218D01*
X0169977Y0174450D01*
X0169977Y0173683D01*
X0170744Y0172916D01*
X0177650Y0170614D02*
X0177650Y0175218D01*
X0210373Y0174450D02*
X0210373Y0171381D01*
X0211140Y0170614D01*
X0212675Y0170614D01*
X0213442Y0171381D01*
X0210373Y0174450D01*
X0211140Y0175218D01*
X0212675Y0175218D01*
X0213442Y0174450D01*
X0213442Y0171381D01*
X0214977Y0170614D02*
X0218046Y0170614D01*
X0216511Y0170614D02*
X0216511Y0175218D01*
X0218046Y0173683D01*
X0219581Y0172916D02*
X0220348Y0172149D01*
X0222650Y0172149D01*
X0221115Y0172149D02*
X0219581Y0170614D01*
X0219581Y0172916D02*
X0219581Y0174450D01*
X0220348Y0175218D01*
X0222650Y0175218D01*
X0222650Y0170614D01*
X0222583Y0182405D02*
X0225652Y0182405D01*
X0222583Y0185474D01*
X0222583Y0186242D01*
X0223350Y0187009D01*
X0224885Y0187009D01*
X0225652Y0186242D01*
X0227187Y0186242D02*
X0227187Y0183173D01*
X0227954Y0182405D01*
X0229489Y0182405D01*
X0230256Y0183173D01*
X0230256Y0186242D01*
X0229489Y0187009D01*
X0227954Y0187009D01*
X0227187Y0186242D01*
X0228721Y0183940D02*
X0227187Y0182405D01*
X0221048Y0183173D02*
X0220281Y0182405D01*
X0218746Y0182405D01*
X0217979Y0183173D01*
X0217979Y0186242D01*
X0218746Y0187009D01*
X0220281Y0187009D01*
X0221048Y0186242D01*
X0221048Y0185474D01*
X0220281Y0184707D01*
X0217979Y0184707D01*
X0218121Y0193655D02*
X0219656Y0193655D01*
X0220423Y0194423D01*
X0217354Y0197492D01*
X0217354Y0194423D01*
X0218121Y0193655D01*
X0220423Y0194423D02*
X0220423Y0197492D01*
X0219656Y0198259D01*
X0218121Y0198259D01*
X0217354Y0197492D01*
X0221958Y0197492D02*
X0221958Y0196724D01*
X0222725Y0195957D01*
X0221958Y0195190D01*
X0221958Y0194423D01*
X0222725Y0193655D01*
X0224260Y0193655D01*
X0225027Y0194423D01*
X0226562Y0194423D02*
X0226562Y0197492D01*
X0227329Y0198259D01*
X0228864Y0198259D01*
X0229631Y0197492D01*
X0229631Y0194423D01*
X0228864Y0193655D01*
X0227329Y0193655D01*
X0226562Y0194423D01*
X0226562Y0193655D02*
X0228096Y0195190D01*
X0225027Y0197492D02*
X0224260Y0198259D01*
X0222725Y0198259D01*
X0221958Y0197492D01*
X0222725Y0195957D02*
X0223493Y0195957D01*
X0255373Y0174450D02*
X0256140Y0175218D01*
X0257675Y0175218D01*
X0258442Y0174450D01*
X0255373Y0174450D02*
X0255373Y0173683D01*
X0258442Y0170614D01*
X0255373Y0170614D01*
X0259977Y0170614D02*
X0263046Y0170614D01*
X0261511Y0170614D02*
X0261511Y0175218D01*
X0263046Y0173683D01*
X0264581Y0172916D02*
X0265348Y0172149D01*
X0267650Y0172149D01*
X0266115Y0172149D02*
X0264581Y0170614D01*
X0264581Y0172916D02*
X0264581Y0174450D01*
X0265348Y0175218D01*
X0267650Y0175218D01*
X0267650Y0170614D01*
X0268350Y0182405D02*
X0269885Y0182405D01*
X0270652Y0183173D01*
X0272187Y0183173D02*
X0272954Y0182405D01*
X0274489Y0182405D01*
X0275256Y0183173D01*
X0275256Y0186242D01*
X0274489Y0187009D01*
X0272954Y0187009D01*
X0272187Y0186242D01*
X0272187Y0183173D01*
X0272187Y0182405D02*
X0273721Y0183940D01*
X0270652Y0186242D02*
X0269885Y0187009D01*
X0268350Y0187009D01*
X0267583Y0186242D01*
X0267583Y0185474D01*
X0268350Y0184707D01*
X0267583Y0183940D01*
X0267583Y0183173D01*
X0268350Y0182405D01*
X0266048Y0182405D02*
X0262979Y0182405D01*
X0264514Y0182405D02*
X0264514Y0187009D01*
X0266048Y0185474D01*
X0268350Y0184707D02*
X0269118Y0184707D01*
X0269260Y0193655D02*
X0267725Y0193655D01*
X0266958Y0194423D01*
X0266958Y0195190D01*
X0267725Y0195957D01*
X0268493Y0195957D01*
X0267725Y0195957D02*
X0266958Y0196724D01*
X0266958Y0197492D01*
X0267725Y0198259D01*
X0269260Y0198259D01*
X0270027Y0197492D01*
X0271562Y0197492D02*
X0271562Y0194423D01*
X0272329Y0193655D01*
X0273864Y0193655D01*
X0274631Y0194423D01*
X0274631Y0197492D01*
X0273864Y0198259D01*
X0272329Y0198259D01*
X0271562Y0197492D01*
X0273096Y0195190D02*
X0271562Y0193655D01*
X0270027Y0194423D02*
X0269260Y0193655D01*
X0265423Y0193655D02*
X0262354Y0196724D01*
X0262354Y0197492D01*
X0263121Y0198259D01*
X0264656Y0198259D01*
X0265423Y0197492D01*
X0265423Y0193655D02*
X0262354Y0193655D01*
X0315435Y0205416D02*
X0318504Y0205416D01*
X0316202Y0207718D01*
X0316202Y0203114D01*
X0320039Y0205416D02*
X0323108Y0205416D01*
X0320806Y0207718D01*
X0320806Y0203114D01*
X0324643Y0203881D02*
X0325410Y0203114D01*
X0326944Y0203114D01*
X0327712Y0203881D01*
X0327712Y0206950D01*
X0326944Y0207718D01*
X0325410Y0207718D01*
X0324643Y0206950D01*
X0349952Y0171468D02*
X0351487Y0171468D01*
X0352254Y0170700D01*
X0353789Y0169166D02*
X0356858Y0169166D01*
X0354556Y0171468D01*
X0354556Y0166864D01*
X0352254Y0166864D02*
X0349185Y0169933D01*
X0349185Y0170700D01*
X0349952Y0171468D01*
X0349185Y0166864D02*
X0352254Y0166864D01*
X0358393Y0167631D02*
X0359160Y0166864D01*
X0360694Y0166864D01*
X0361462Y0167631D01*
X0361462Y0170700D01*
X0360694Y0171468D01*
X0359160Y0171468D01*
X0358393Y0170700D01*
X0313900Y0070718D02*
X0313900Y0066881D01*
X0313133Y0066114D01*
X0311598Y0066114D01*
X0310831Y0066881D01*
X0310831Y0070718D01*
X0309296Y0070718D02*
X0306227Y0070718D01*
X0306227Y0069950D01*
X0309296Y0066881D01*
X0309296Y0066114D01*
X0329952Y0040218D02*
X0329185Y0039450D01*
X0329185Y0038683D01*
X0329952Y0037916D01*
X0331487Y0037916D01*
X0332254Y0038683D01*
X0332254Y0039450D01*
X0331487Y0040218D01*
X0329952Y0040218D01*
X0329952Y0037916D02*
X0329185Y0037149D01*
X0329185Y0036381D01*
X0329952Y0035614D01*
X0331487Y0035614D01*
X0332254Y0036381D01*
X0332254Y0037149D01*
X0331487Y0037916D01*
X0333789Y0039450D02*
X0334556Y0040218D01*
X0336091Y0040218D01*
X0336858Y0039450D01*
X0336858Y0036381D01*
X0336091Y0035614D01*
X0334556Y0035614D01*
X0333789Y0036381D01*
X0290212Y0035218D02*
X0290212Y0030614D01*
X0290212Y0032149D02*
X0287910Y0032149D01*
X0287143Y0032916D01*
X0287143Y0034450D01*
X0287910Y0035218D01*
X0290212Y0035218D01*
X0288677Y0032149D02*
X0287143Y0030614D01*
X0285608Y0031381D02*
X0284841Y0030614D01*
X0283306Y0030614D01*
X0282539Y0031381D01*
X0282539Y0032149D01*
X0283306Y0032916D01*
X0284073Y0032916D01*
X0283306Y0032916D02*
X0282539Y0033683D01*
X0282539Y0034450D01*
X0283306Y0035218D01*
X0284841Y0035218D01*
X0285608Y0034450D01*
X0281004Y0032916D02*
X0281004Y0031381D01*
X0280237Y0030614D01*
X0278702Y0030614D01*
X0277935Y0031381D01*
X0277935Y0032149D01*
X0278702Y0032916D01*
X0281004Y0032916D01*
X0279469Y0034450D01*
X0277935Y0035218D01*
X0278046Y0056864D02*
X0278046Y0057631D01*
X0274977Y0060700D01*
X0274977Y0061468D01*
X0278046Y0061468D01*
X0279581Y0060700D02*
X0280348Y0061468D01*
X0281883Y0061468D01*
X0282650Y0060700D01*
X0282650Y0057631D01*
X0281883Y0056864D01*
X0280348Y0056864D01*
X0279581Y0057631D01*
X0272712Y0065614D02*
X0272712Y0070218D01*
X0270410Y0070218D01*
X0269643Y0069450D01*
X0269643Y0067916D01*
X0270410Y0067149D01*
X0272712Y0067149D01*
X0271177Y0067149D02*
X0269643Y0065614D01*
X0268108Y0065614D02*
X0268108Y0066381D01*
X0265039Y0069450D01*
X0265039Y0070218D01*
X0268108Y0070218D01*
X0263504Y0069450D02*
X0263504Y0066381D01*
X0260435Y0069450D01*
X0260435Y0066381D01*
X0261202Y0065614D01*
X0262737Y0065614D01*
X0263504Y0066381D01*
X0263504Y0069450D02*
X0262737Y0070218D01*
X0261202Y0070218D01*
X0260435Y0069450D01*
X0256462Y0035218D02*
X0254160Y0035218D01*
X0253393Y0034450D01*
X0253393Y0032916D01*
X0254160Y0032149D01*
X0256462Y0032149D01*
X0254927Y0032149D02*
X0253393Y0030614D01*
X0251858Y0031381D02*
X0251091Y0030614D01*
X0249556Y0030614D01*
X0248789Y0031381D01*
X0248789Y0032149D01*
X0249556Y0032916D01*
X0250323Y0032916D01*
X0249556Y0032916D02*
X0248789Y0033683D01*
X0248789Y0034450D01*
X0249556Y0035218D01*
X0251091Y0035218D01*
X0251858Y0034450D01*
X0256462Y0035218D02*
X0256462Y0030614D01*
X0247254Y0031381D02*
X0246487Y0030614D01*
X0244952Y0030614D01*
X0244185Y0031381D01*
X0244185Y0032916D01*
X0244952Y0033683D01*
X0245719Y0033683D01*
X0247254Y0032916D01*
X0247254Y0035218D01*
X0244185Y0035218D01*
X0221462Y0035218D02*
X0221462Y0030614D01*
X0221462Y0032149D02*
X0219160Y0032149D01*
X0218393Y0032916D01*
X0218393Y0034450D01*
X0219160Y0035218D01*
X0221462Y0035218D01*
X0219927Y0032149D02*
X0218393Y0030614D01*
X0216858Y0031381D02*
X0216091Y0030614D01*
X0214556Y0030614D01*
X0213789Y0031381D01*
X0213789Y0032149D01*
X0214556Y0032916D01*
X0215323Y0032916D01*
X0214556Y0032916D02*
X0213789Y0033683D01*
X0213789Y0034450D01*
X0214556Y0035218D01*
X0216091Y0035218D01*
X0216858Y0034450D01*
X0212254Y0034450D02*
X0211487Y0035218D01*
X0209952Y0035218D01*
X0209185Y0034450D01*
X0209185Y0033683D01*
X0209952Y0032916D01*
X0209185Y0032149D01*
X0209185Y0031381D01*
X0209952Y0030614D01*
X0211487Y0030614D01*
X0212254Y0031381D01*
X0210719Y0032916D02*
X0209952Y0032916D01*
X0185212Y0032149D02*
X0182910Y0032149D01*
X0182143Y0032916D01*
X0182143Y0034450D01*
X0182910Y0035218D01*
X0185212Y0035218D01*
X0185212Y0030614D01*
X0183677Y0032149D02*
X0182143Y0030614D01*
X0180608Y0031381D02*
X0179841Y0030614D01*
X0178306Y0030614D01*
X0177539Y0031381D01*
X0177539Y0032149D01*
X0178306Y0032916D01*
X0179073Y0032916D01*
X0178306Y0032916D02*
X0177539Y0033683D01*
X0177539Y0034450D01*
X0178306Y0035218D01*
X0179841Y0035218D01*
X0180608Y0034450D01*
X0176004Y0032916D02*
X0172935Y0032916D01*
X0173702Y0035218D02*
X0176004Y0032916D01*
X0173702Y0030614D02*
X0173702Y0035218D01*
X0173046Y0110614D02*
X0173046Y0111381D01*
X0169977Y0114450D01*
X0169977Y0115218D01*
X0173046Y0115218D01*
X0174581Y0114450D02*
X0174581Y0112916D01*
X0175348Y0112149D01*
X0177650Y0112149D01*
X0176115Y0112149D02*
X0174581Y0110614D01*
X0177650Y0110614D02*
X0177650Y0115218D01*
X0175348Y0115218D01*
X0174581Y0114450D01*
X0214977Y0114450D02*
X0214977Y0111381D01*
X0215744Y0110614D01*
X0217279Y0110614D01*
X0218046Y0111381D01*
X0219581Y0110614D02*
X0221115Y0112149D01*
X0220348Y0112149D02*
X0222650Y0112149D01*
X0222650Y0110614D02*
X0222650Y0115218D01*
X0220348Y0115218D01*
X0219581Y0114450D01*
X0219581Y0112916D01*
X0220348Y0112149D01*
X0218046Y0113683D02*
X0218046Y0114450D01*
X0217279Y0115218D01*
X0215744Y0115218D01*
X0214977Y0114450D01*
X0214977Y0112916D02*
X0217279Y0112916D01*
X0218046Y0113683D01*
X0255373Y0110614D02*
X0258442Y0110614D01*
X0256908Y0110614D02*
X0256908Y0115218D01*
X0258442Y0113683D01*
X0259977Y0110614D02*
X0263046Y0110614D01*
X0261511Y0110614D02*
X0261511Y0115218D01*
X0263046Y0113683D01*
X0264581Y0114450D02*
X0264581Y0112916D01*
X0265348Y0112149D01*
X0267650Y0112149D01*
X0266115Y0112149D02*
X0264581Y0110614D01*
X0267650Y0110614D02*
X0267650Y0115218D01*
X0265348Y0115218D01*
X0264581Y0114450D01*
X0132650Y0115218D02*
X0132650Y0110614D01*
X0132650Y0112149D02*
X0130348Y0112149D01*
X0129581Y0112916D01*
X0129581Y0114450D01*
X0130348Y0115218D01*
X0132650Y0115218D01*
X0131115Y0112149D02*
X0129581Y0110614D01*
X0128046Y0111381D02*
X0127279Y0110614D01*
X0125744Y0110614D01*
X0124977Y0111381D01*
X0124977Y0112916D01*
X0125744Y0113683D01*
X0126511Y0113683D01*
X0128046Y0112916D01*
X0128046Y0115218D01*
X0124977Y0115218D01*
D12*
X0129821Y0103172D02*
X0129821Y0100704D01*
X0129821Y0101938D02*
X0133524Y0101938D01*
X0132290Y0100704D01*
X0132907Y0099489D02*
X0133524Y0098872D01*
X0133524Y0097021D01*
X0129821Y0097021D01*
X0129821Y0098872D01*
X0130438Y0099489D01*
X0132907Y0099489D01*
X0139821Y0098872D02*
X0140438Y0099489D01*
X0142907Y0099489D01*
X0143524Y0098872D01*
X0143524Y0097021D01*
X0139821Y0097021D01*
X0139821Y0098872D01*
X0139821Y0100704D02*
X0142290Y0103172D01*
X0142907Y0103172D01*
X0143524Y0102555D01*
X0143524Y0101321D01*
X0142907Y0100704D01*
X0139821Y0100704D02*
X0139821Y0103172D01*
X0149821Y0102555D02*
X0149821Y0101321D01*
X0150438Y0100704D01*
X0150438Y0099489D02*
X0152907Y0099489D01*
X0153524Y0098872D01*
X0153524Y0097021D01*
X0149821Y0097021D01*
X0149821Y0098872D01*
X0150438Y0099489D01*
X0151672Y0101938D02*
X0151672Y0102555D01*
X0151055Y0103172D01*
X0150438Y0103172D01*
X0149821Y0102555D01*
X0151672Y0102555D02*
X0152290Y0103172D01*
X0152907Y0103172D01*
X0153524Y0102555D01*
X0153524Y0101321D01*
X0152907Y0100704D01*
X0159821Y0098872D02*
X0160438Y0099489D01*
X0162907Y0099489D01*
X0163524Y0098872D01*
X0163524Y0097021D01*
X0159821Y0097021D01*
X0159821Y0098872D01*
X0161672Y0100704D02*
X0161672Y0103172D01*
X0159821Y0102555D02*
X0163524Y0102555D01*
X0161672Y0100704D01*
X0169821Y0101321D02*
X0170438Y0100704D01*
X0169821Y0101321D02*
X0169821Y0102555D01*
X0170438Y0103172D01*
X0171672Y0103172D01*
X0172290Y0102555D01*
X0172290Y0101938D01*
X0171672Y0100704D01*
X0173524Y0100704D01*
X0173524Y0103172D01*
X0172907Y0099489D02*
X0170438Y0099489D01*
X0169821Y0098872D01*
X0169821Y0097021D01*
X0173524Y0097021D01*
X0173524Y0098872D01*
X0172907Y0099489D01*
X0179821Y0098872D02*
X0180438Y0099489D01*
X0182907Y0099489D01*
X0183524Y0098872D01*
X0183524Y0097021D01*
X0179821Y0097021D01*
X0179821Y0098872D01*
X0180438Y0100704D02*
X0179821Y0101321D01*
X0179821Y0102555D01*
X0180438Y0103172D01*
X0181055Y0103172D01*
X0181672Y0102555D01*
X0181672Y0100704D01*
X0180438Y0100704D01*
X0181672Y0100704D02*
X0182907Y0101938D01*
X0183524Y0103172D01*
X0189821Y0100704D02*
X0190438Y0100704D01*
X0192907Y0103172D01*
X0193524Y0103172D01*
X0193524Y0100704D01*
X0192907Y0099489D02*
X0190438Y0099489D01*
X0189821Y0098872D01*
X0189821Y0097021D01*
X0193524Y0097021D01*
X0193524Y0098872D01*
X0192907Y0099489D01*
X0199821Y0098872D02*
X0200438Y0099489D01*
X0202907Y0099489D01*
X0203524Y0098872D01*
X0203524Y0097021D01*
X0199821Y0097021D01*
X0199821Y0098872D01*
X0200438Y0100704D02*
X0201055Y0100704D01*
X0201672Y0101321D01*
X0201672Y0102555D01*
X0201055Y0103172D01*
X0200438Y0103172D01*
X0199821Y0102555D01*
X0199821Y0101321D01*
X0200438Y0100704D01*
X0201672Y0101321D02*
X0202290Y0100704D01*
X0202907Y0100704D01*
X0203524Y0101321D01*
X0203524Y0102555D01*
X0202907Y0103172D01*
X0202290Y0103172D01*
X0201672Y0102555D01*
X0209821Y0102555D02*
X0210438Y0103172D01*
X0212907Y0103172D01*
X0213524Y0102555D01*
X0213524Y0101321D01*
X0212907Y0100704D01*
X0212290Y0100704D01*
X0211672Y0101321D01*
X0211672Y0103172D01*
X0209821Y0102555D02*
X0209821Y0101321D01*
X0210438Y0100704D01*
X0210438Y0099489D02*
X0212907Y0099489D01*
X0213524Y0098872D01*
X0213524Y0097021D01*
X0209821Y0097021D01*
X0209821Y0098872D01*
X0210438Y0099489D01*
X0219821Y0098872D02*
X0220438Y0099489D01*
X0222907Y0099489D01*
X0223524Y0098872D01*
X0223524Y0097021D01*
X0219821Y0097021D01*
X0219821Y0098872D01*
X0219821Y0100704D02*
X0219821Y0103172D01*
X0219821Y0101938D02*
X0223524Y0101938D01*
X0222290Y0100704D01*
X0222907Y0104387D02*
X0223524Y0105004D01*
X0223524Y0106238D01*
X0222907Y0106856D01*
X0220438Y0104387D01*
X0219821Y0105004D01*
X0219821Y0106238D01*
X0220438Y0106856D01*
X0222907Y0106856D01*
X0222907Y0104387D02*
X0220438Y0104387D01*
X0234821Y0104387D02*
X0234821Y0106856D01*
X0234821Y0105621D02*
X0238524Y0105621D01*
X0237290Y0104387D01*
X0238524Y0101938D02*
X0234821Y0101938D01*
X0234821Y0100704D02*
X0234821Y0103172D01*
X0237290Y0100704D02*
X0238524Y0101938D01*
X0237907Y0099489D02*
X0235438Y0099489D01*
X0234821Y0098872D01*
X0234821Y0097021D01*
X0238524Y0097021D01*
X0238524Y0098872D01*
X0237907Y0099489D01*
X0249821Y0098872D02*
X0250438Y0099489D01*
X0252907Y0099489D01*
X0253524Y0098872D01*
X0253524Y0097021D01*
X0249821Y0097021D01*
X0249821Y0098872D01*
X0249821Y0100704D02*
X0249821Y0103172D01*
X0249821Y0104387D02*
X0252290Y0106856D01*
X0252907Y0106856D01*
X0253524Y0106238D01*
X0253524Y0105004D01*
X0252907Y0104387D01*
X0253524Y0101938D02*
X0249821Y0101938D01*
X0249821Y0104387D02*
X0249821Y0106856D01*
X0253524Y0101938D02*
X0252290Y0100704D01*
X0259121Y0037196D02*
X0261590Y0037196D01*
X0261590Y0035345D01*
X0260355Y0035962D01*
X0259738Y0035962D01*
X0259121Y0035345D01*
X0259121Y0034110D01*
X0259738Y0033493D01*
X0260973Y0033493D01*
X0261590Y0034110D01*
X0262804Y0034110D02*
X0263421Y0033493D01*
X0264656Y0033493D01*
X0265273Y0034110D01*
X0266487Y0034110D02*
X0266487Y0036579D01*
X0267105Y0037196D01*
X0268956Y0037196D01*
X0268956Y0033493D01*
X0267105Y0033493D01*
X0266487Y0034110D01*
X0264039Y0035345D02*
X0263421Y0035345D01*
X0262804Y0034727D01*
X0262804Y0034110D01*
X0263421Y0035345D02*
X0262804Y0035962D01*
X0262804Y0036579D01*
X0263421Y0037196D01*
X0264656Y0037196D01*
X0265273Y0036579D01*
X0294121Y0037196D02*
X0295355Y0036579D01*
X0296590Y0035345D01*
X0294738Y0035345D01*
X0294121Y0034727D01*
X0294121Y0034110D01*
X0294738Y0033493D01*
X0295973Y0033493D01*
X0296590Y0034110D01*
X0296590Y0035345D01*
X0297804Y0035962D02*
X0298421Y0035345D01*
X0297804Y0034727D01*
X0297804Y0034110D01*
X0298421Y0033493D01*
X0299656Y0033493D01*
X0300273Y0034110D01*
X0301487Y0034110D02*
X0301487Y0036579D01*
X0302105Y0037196D01*
X0303956Y0037196D01*
X0303956Y0033493D01*
X0302105Y0033493D01*
X0301487Y0034110D01*
X0299039Y0035345D02*
X0298421Y0035345D01*
X0297804Y0035962D02*
X0297804Y0036579D01*
X0298421Y0037196D01*
X0299656Y0037196D01*
X0300273Y0036579D01*
X0235206Y0037196D02*
X0235206Y0033493D01*
X0233355Y0033493D01*
X0232737Y0034110D01*
X0232737Y0036579D01*
X0233355Y0037196D01*
X0235206Y0037196D01*
X0231523Y0036579D02*
X0230906Y0037196D01*
X0229671Y0037196D01*
X0229054Y0036579D01*
X0229054Y0035962D01*
X0229671Y0035345D01*
X0229054Y0034727D01*
X0229054Y0034110D01*
X0229671Y0033493D01*
X0230906Y0033493D01*
X0231523Y0034110D01*
X0230289Y0035345D02*
X0229671Y0035345D01*
X0227840Y0036579D02*
X0227223Y0037196D01*
X0225988Y0037196D01*
X0225371Y0036579D01*
X0225371Y0035962D01*
X0225988Y0035345D01*
X0225371Y0034727D01*
X0225371Y0034110D01*
X0225988Y0033493D01*
X0227223Y0033493D01*
X0227840Y0034110D01*
X0226605Y0035345D02*
X0225988Y0035345D01*
X0198956Y0037196D02*
X0198956Y0033493D01*
X0197105Y0033493D01*
X0196487Y0034110D01*
X0196487Y0036579D01*
X0197105Y0037196D01*
X0198956Y0037196D01*
X0195273Y0036579D02*
X0194656Y0037196D01*
X0193421Y0037196D01*
X0192804Y0036579D01*
X0192804Y0035962D01*
X0193421Y0035345D01*
X0192804Y0034727D01*
X0192804Y0034110D01*
X0193421Y0033493D01*
X0194656Y0033493D01*
X0195273Y0034110D01*
X0194039Y0035345D02*
X0193421Y0035345D01*
X0191590Y0035345D02*
X0189738Y0037196D01*
X0189738Y0033493D01*
X0189121Y0035345D02*
X0191590Y0035345D01*
X0163956Y0037196D02*
X0163956Y0033493D01*
X0162105Y0033493D01*
X0161487Y0034110D01*
X0161487Y0036579D01*
X0162105Y0037196D01*
X0163956Y0037196D01*
X0160273Y0036579D02*
X0159656Y0037196D01*
X0158421Y0037196D01*
X0157804Y0036579D01*
X0157804Y0035962D01*
X0158421Y0035345D01*
X0157804Y0034727D01*
X0157804Y0034110D01*
X0158421Y0033493D01*
X0159656Y0033493D01*
X0160273Y0034110D01*
X0159039Y0035345D02*
X0158421Y0035345D01*
X0156590Y0036579D02*
X0155973Y0037196D01*
X0154738Y0037196D01*
X0154121Y0036579D01*
X0156590Y0034110D01*
X0155973Y0033493D01*
X0154738Y0033493D01*
X0154121Y0034110D01*
X0154121Y0036579D01*
X0156590Y0036579D02*
X0156590Y0034110D01*
X0147706Y0033493D02*
X0145855Y0033493D01*
X0145237Y0034110D01*
X0145237Y0036579D01*
X0145855Y0037196D01*
X0147706Y0037196D01*
X0147706Y0033493D01*
X0144023Y0033493D02*
X0141554Y0035962D01*
X0141554Y0036579D01*
X0142171Y0037196D01*
X0143406Y0037196D01*
X0144023Y0036579D01*
X0144023Y0033493D02*
X0141554Y0033493D01*
X0140340Y0034110D02*
X0139723Y0033493D01*
X0138488Y0033493D01*
X0137871Y0034110D01*
X0137871Y0036579D01*
X0138488Y0037196D01*
X0139723Y0037196D01*
X0140340Y0036579D01*
X0140340Y0035962D01*
X0139723Y0035345D01*
X0137871Y0035345D01*
X0131456Y0037196D02*
X0129605Y0037196D01*
X0128987Y0036579D01*
X0128987Y0034110D01*
X0129605Y0033493D01*
X0131456Y0033493D01*
X0131456Y0037196D01*
X0127773Y0036579D02*
X0127156Y0037196D01*
X0125921Y0037196D01*
X0125304Y0036579D01*
X0125304Y0035962D01*
X0127773Y0033493D01*
X0125304Y0033493D01*
X0124090Y0035345D02*
X0121621Y0035345D01*
X0122238Y0037196D02*
X0122238Y0033493D01*
X0124090Y0035345D02*
X0122238Y0037196D01*
X0118382Y0043058D02*
X0118382Y0044909D01*
X0117765Y0045527D01*
X0115296Y0045527D01*
X0114679Y0044909D01*
X0114679Y0043058D01*
X0118382Y0043058D01*
X0117765Y0046741D02*
X0118382Y0047358D01*
X0118382Y0048592D01*
X0117765Y0049210D01*
X0117148Y0049210D01*
X0114679Y0046741D01*
X0114679Y0049210D01*
X0114679Y0050424D02*
X0117148Y0052893D01*
X0117765Y0052893D01*
X0118382Y0052276D01*
X0118382Y0051041D01*
X0117765Y0050424D01*
X0114679Y0050424D02*
X0114679Y0052893D01*
X0114679Y0055245D02*
X0114679Y0057097D01*
X0115296Y0057714D01*
X0117765Y0057714D01*
X0118382Y0057097D01*
X0118382Y0055245D01*
X0114679Y0055245D01*
X0114679Y0058928D02*
X0117148Y0061397D01*
X0117765Y0061397D01*
X0118382Y0060780D01*
X0118382Y0059546D01*
X0117765Y0058928D01*
X0114679Y0058928D02*
X0114679Y0061397D01*
X0114679Y0062612D02*
X0114679Y0065080D01*
X0114679Y0063846D02*
X0118382Y0063846D01*
X0117148Y0062612D01*
X0116523Y0070993D02*
X0114054Y0070993D01*
X0112840Y0071610D02*
X0112223Y0070993D01*
X0110988Y0070993D01*
X0110371Y0071610D01*
X0110371Y0072227D01*
X0110988Y0072845D01*
X0112840Y0072845D01*
X0112840Y0071610D01*
X0112840Y0072845D02*
X0111605Y0074079D01*
X0110371Y0074696D01*
X0114054Y0074079D02*
X0114671Y0074696D01*
X0115906Y0074696D01*
X0116523Y0074079D01*
X0117737Y0074079D02*
X0118355Y0074696D01*
X0120206Y0074696D01*
X0120206Y0070993D01*
X0118355Y0070993D01*
X0117737Y0071610D01*
X0117737Y0074079D01*
X0116523Y0070993D02*
X0114054Y0073462D01*
X0114054Y0074079D01*
X0106024Y0073872D02*
X0106024Y0072021D01*
X0102321Y0072021D01*
X0102321Y0073872D01*
X0102938Y0074489D01*
X0105407Y0074489D01*
X0106024Y0073872D01*
X0105407Y0075704D02*
X0106024Y0076321D01*
X0106024Y0077555D01*
X0105407Y0078172D01*
X0104790Y0078172D01*
X0102321Y0075704D01*
X0102321Y0078172D01*
X0102938Y0079387D02*
X0102321Y0080004D01*
X0102321Y0081238D01*
X0102938Y0081856D01*
X0103555Y0081856D01*
X0104172Y0081238D01*
X0104172Y0080621D01*
X0104172Y0081238D02*
X0104790Y0081856D01*
X0105407Y0081856D01*
X0106024Y0081238D01*
X0106024Y0080004D01*
X0105407Y0079387D01*
X0095206Y0097243D02*
X0093355Y0097243D01*
X0092737Y0097860D01*
X0092737Y0100329D01*
X0093355Y0100946D01*
X0095206Y0100946D01*
X0095206Y0097243D01*
X0091523Y0097243D02*
X0089054Y0099712D01*
X0089054Y0100329D01*
X0089671Y0100946D01*
X0090906Y0100946D01*
X0091523Y0100329D01*
X0091523Y0097243D02*
X0089054Y0097243D01*
X0087840Y0097860D02*
X0087223Y0097243D01*
X0085988Y0097243D01*
X0085371Y0097860D01*
X0085371Y0099095D01*
X0085988Y0099712D01*
X0086605Y0099712D01*
X0087840Y0099095D01*
X0087840Y0100946D01*
X0085371Y0100946D01*
X0047274Y0101321D02*
X0046657Y0100704D01*
X0047274Y0101321D02*
X0047274Y0102555D01*
X0046657Y0103172D01*
X0046040Y0103172D01*
X0043571Y0100704D01*
X0043571Y0103172D01*
X0043571Y0104387D02*
X0044188Y0104387D01*
X0046657Y0106856D01*
X0047274Y0106856D01*
X0047274Y0104387D01*
X0046657Y0099489D02*
X0044188Y0099489D01*
X0043571Y0098872D01*
X0043571Y0097021D01*
X0047274Y0097021D01*
X0047274Y0098872D01*
X0046657Y0099489D01*
X0047148Y0062893D02*
X0046531Y0062276D01*
X0046531Y0061041D01*
X0047148Y0060424D01*
X0047765Y0060424D01*
X0048382Y0061041D01*
X0048382Y0062276D01*
X0047765Y0062893D01*
X0047148Y0062893D01*
X0046531Y0062276D02*
X0045914Y0062893D01*
X0045296Y0062893D01*
X0044679Y0062276D01*
X0044679Y0061041D01*
X0045296Y0060424D01*
X0045914Y0060424D01*
X0046531Y0061041D01*
X0047148Y0059210D02*
X0044679Y0056741D01*
X0044679Y0059210D01*
X0047148Y0059210D02*
X0047765Y0059210D01*
X0048382Y0058592D01*
X0048382Y0057358D01*
X0047765Y0056741D01*
X0047765Y0055527D02*
X0048382Y0054909D01*
X0048382Y0053058D01*
X0044679Y0053058D01*
X0044679Y0054909D01*
X0045296Y0055527D01*
X0047765Y0055527D01*
D13*
X0043549Y0055926D02*
X0024651Y0055926D01*
X0024651Y0042934D01*
X0024651Y0055926D02*
X0024651Y0057894D01*
X0027151Y0072934D02*
X0027151Y0085926D01*
X0046049Y0085926D01*
X0046049Y0087894D01*
X0046049Y0085926D02*
X0046049Y0072934D01*
X0057151Y0072934D02*
X0057151Y0085926D01*
X0076049Y0085926D01*
X0076049Y0087894D01*
X0076049Y0085926D02*
X0076049Y0072934D01*
X0076049Y0057894D02*
X0076049Y0055926D01*
X0057151Y0055926D01*
X0057151Y0042934D01*
X0057151Y0055926D02*
X0057151Y0057894D01*
X0043549Y0057894D02*
X0043549Y0055926D01*
X0043549Y0042934D01*
X0076049Y0042934D02*
X0076049Y0055926D01*
X0087151Y0055926D02*
X0087151Y0042934D01*
X0087151Y0055926D02*
X0106049Y0055926D01*
X0106049Y0057894D01*
X0106049Y0055926D02*
X0106049Y0042934D01*
X0087151Y0055926D02*
X0087151Y0057894D01*
X0057151Y0085926D02*
X0057151Y0087894D01*
X0027151Y0087894D02*
X0027151Y0085926D01*
X0059435Y0180852D02*
X0063765Y0180852D01*
X0063765Y0188726D02*
X0059435Y0188726D01*
X0059435Y0192727D02*
X0063765Y0192727D01*
X0063765Y0200601D02*
X0059435Y0200601D01*
X0076935Y0200601D02*
X0081265Y0200601D01*
X0081265Y0192727D02*
X0076935Y0192727D01*
X0076935Y0188726D02*
X0081265Y0188726D01*
X0081265Y0180852D02*
X0076935Y0180852D01*
X0116935Y0180852D02*
X0121265Y0180852D01*
X0121265Y0188726D02*
X0116935Y0188726D01*
X0116935Y0192727D02*
X0121265Y0192727D01*
X0121265Y0200601D02*
X0116935Y0200601D01*
X0161935Y0200601D02*
X0166265Y0200601D01*
X0166265Y0192727D02*
X0161935Y0192727D01*
X0161935Y0188726D02*
X0166265Y0188726D01*
X0166265Y0180852D02*
X0161935Y0180852D01*
X0206935Y0180852D02*
X0211265Y0180852D01*
X0211265Y0188726D02*
X0206935Y0188726D01*
X0206935Y0192727D02*
X0211265Y0192727D01*
X0211265Y0200601D02*
X0206935Y0200601D01*
X0251935Y0200601D02*
X0256265Y0200601D01*
X0256265Y0192727D02*
X0251935Y0192727D01*
X0251935Y0188726D02*
X0256265Y0188726D01*
X0256265Y0180852D02*
X0251935Y0180852D01*
D14*
X0255084Y0187545D03*
X0255084Y0199420D03*
X0208116Y0193908D03*
X0208116Y0182033D03*
X0163116Y0182033D03*
X0163116Y0193908D03*
X0118116Y0193908D03*
X0118116Y0182033D03*
X0078116Y0182033D03*
X0078116Y0193908D03*
X0060616Y0193908D03*
X0060616Y0182033D03*
M02*
